<svg xmlns="http://www.w3.org/2000/svg" width="151" height="40" fill="none"><path fill="#3182CE" d="M27.768 0 0 23.14h18.75l-7.502 16.836L39.26 16.991H19.733L27.768 0Z"/><path fill="#2B6CB0" d="M27.768 0 15.225 18.682h18.637L11.248 39.976 39.26 16.991H19.733L27.768 0Z"/><path fill="#4299E1" d="M27.768 0 0 23.14h18.75l-7.502 16.836L23.164 21.45H5.544L27.768 0Z"/><path fill="#122743" d="M106.037 28.34c-1.236 0-2.37-.109-3.402-.327a14.846 14.846 0 0 1-2.814-.916 14.316 14.316 0 0 1-2.27-1.33l1.702-2.967c1.193.843 2.393 1.461 3.6 1.854 1.207.378 2.363.567 3.468.567.48 0 .982-.044 1.505-.131.524-.102.96-.269 1.309-.502.364-.247.545-.581.545-1.003a.793.793 0 0 0-.261-.61c-.16-.175-.386-.314-.677-.415a5.612 5.612 0 0 0-1.025-.24 10.013 10.013 0 0 0-1.243-.153 435.1 435.1 0 0 0-1.331-.13 16.257 16.257 0 0 1-2.77-.503c-.829-.232-1.542-.53-2.138-.894-.582-.378-1.032-.836-1.352-1.374-.32-.538-.48-1.156-.48-1.854 0-.786.189-1.484.567-2.094.392-.611.938-1.12 1.636-1.527.698-.422 1.498-.742 2.399-.96a12.697 12.697 0 0 1 2.945-.327c1.091 0 2.072.101 2.945.305.887.189 1.665.45 2.334.785.684.335 1.251.698 1.702 1.09l-1.789 2.575a6.712 6.712 0 0 0-1.571-.85 9.454 9.454 0 0 0-1.854-.568 9.566 9.566 0 0 0-1.92-.196c-.654 0-1.243.058-1.766.174-.509.102-.917.262-1.222.48-.291.204-.436.473-.436.807 0 .306.123.56.371.764.261.189.596.341 1.003.458.407.102.858.182 1.352.24.495.058.975.116 1.44.174.873.087 1.731.204 2.574.35.844.13 1.6.348 2.269.654.683.29 1.229.712 1.636 1.265.407.538.611 1.272.611 2.203 0 1.076-.328 2-.982 2.77-.654.757-1.556 1.338-2.705 1.745-1.134.408-2.436.611-3.905.611ZM138.186 28.3V24.98h4.101v-8.856h-4.101l-.072-3.2h12.004v3.2h-4.122v8.856h4.122v3.318h-11.932ZM44.837 25.793l.041 2.506h15.38l-.042-3.335h-9.601l9.361-9.532v-2.507h-13.65v3.51h7.72l-9.209 9.358ZM63.347 28.3V12.924h13.7v3.09h-10.1v2.836h9.118v3.01h-9.118v3.234h10.318V28.3H63.347ZM128.759 28.253c-1.628 0-3.046-.32-4.253-.96-1.207-.64-2.145-1.52-2.814-2.64-.669-1.119-1.004-2.486-1.004-3.926v-7.802h3.752v7.802c0 5.273 8.747 5.273 8.747 0v-7.802h3.622v7.802c0 1.44-.335 2.807-1.004 3.927s-1.607 2-2.814 2.64c-1.207.64-2.617.959-4.232.959ZM79.954 20.727v-7.802h3.752v7.802c0 5.447 8.747 5.447 8.747 0v-7.802h3.621v7.802c0 10.157-16.12 10.09-16.12 0Z"/></svg>