<svg xmlns="http://www.w3.org/2000/svg" width="151" height="40" fill="none"><g clip-path="url(#a)"><path fill="url(#b)" d="M10.978 28.509c-2.89 2.872-7.787 2.86-9.155-.968a16.463 16.463 0 0 1 .31-11.869 16.575 16.575 0 0 1 6.135-7.428 16.738 16.738 0 0 1 9.256-2.79c3.295 0 6.516.971 9.256 2.79a16.575 16.575 0 0 1 6.136 7.428 16.452 16.452 0 0 1 .308 11.87c-1.367 3.828-6.263 3.84-9.155.967l-4.463-4.434c-.426-.424-.382-1.122-.264-1.71a1.831 1.831 0 0 0-.788-1.89 1.862 1.862 0 0 0-2.742.826c-.14.337-.177.707-.106 1.064.118.588.162 1.286-.265 1.71l-4.463 4.434Z"/><path fill="#3A3B7B" d="M47.738 24.535h4.478v2.622h-7.897V13.214h3.419v11.321ZM58.325 27.316c-1.093 0-2.08-.232-2.959-.695a5.194 5.194 0 0 1-2.06-1.987c-.492-.86-.739-1.867-.739-3.019 0-1.138.253-2.138.76-2.999a5.123 5.123 0 0 1 2.079-2.006c.88-.463 1.866-.695 2.959-.695s2.08.232 2.959.695a5.122 5.122 0 0 1 2.079 2.006c.506.86.76 1.86.76 3 0 1.138-.26 2.145-.78 3.018a5.127 5.127 0 0 1-2.1 1.987c-.879.463-1.865.695-2.958.695Zm0-2.94c.653 0 1.206-.238 1.66-.715.466-.477.699-1.158.699-2.046 0-.887-.227-1.569-.68-2.045a2.14 2.14 0 0 0-1.64-.715c-.665 0-1.219.238-1.658.715-.44.463-.66 1.145-.66 2.045 0 .888.213 1.57.64 2.046.44.477.986.715 1.639.715ZM69.615 15.915c.786 0 1.473.159 2.059.477.6.317 1.06.735 1.38 1.251v-1.569h3.418v11.063c0 1.02-.206 1.94-.62 2.76-.4.835-1.02 1.497-1.859 1.987-.826.49-1.86.735-3.099.735-1.652 0-2.992-.39-4.018-1.172-1.026-.768-1.613-1.814-1.76-3.138h3.38c.106.424.36.755.759.993.4.252.893.377 1.48.377.706 0 1.265-.205 1.679-.615.426-.398.64-1.04.64-1.927v-1.57c-.334.517-.794.941-1.38 1.272-.587.318-1.273.477-2.06.477-.919 0-1.752-.232-2.498-.695-.747-.477-1.34-1.146-1.78-2.006-.426-.874-.64-1.88-.64-3.02 0-1.138.214-2.138.64-2.999.44-.86 1.033-1.522 1.78-1.986a4.642 4.642 0 0 1 2.499-.695Zm3.438 5.7c0-.847-.24-1.516-.72-2.006a2.281 2.281 0 0 0-1.719-.735c-.68 0-1.26.245-1.739.735-.466.477-.7 1.14-.7 1.987 0 .847.234 1.522.7 2.026.48.49 1.06.734 1.74.734.68 0 1.252-.245 1.719-.735.48-.49.72-1.158.72-2.006ZM83.423 27.316c-1.093 0-2.079-.232-2.958-.695a5.193 5.193 0 0 1-2.06-1.987c-.493-.86-.74-1.867-.74-3.019 0-1.138.254-2.138.76-2.999a5.122 5.122 0 0 1 2.08-2.006c.88-.463 1.866-.695 2.958-.695 1.093 0 2.08.232 2.96.695a5.122 5.122 0 0 1 2.078 2.006c.507.86.76 1.86.76 3 0 1.138-.26 2.145-.78 3.018a5.127 5.127 0 0 1-2.099 1.987c-.88.463-1.866.695-2.959.695Zm0-2.94c.653 0 1.207-.238 1.66-.715.466-.477.7-1.158.7-2.046 0-.887-.227-1.569-.68-2.045a2.14 2.14 0 0 0-1.64-.715c-.666 0-1.22.238-1.659.715-.44.463-.66 1.145-.66 2.045 0 .888.214 1.57.64 2.046.44.477.986.715 1.64.715ZM92.194 14.922c-.6 0-1.093-.172-1.48-.516a1.746 1.746 0 0 1-.56-1.311c0-.53.188-.967.56-1.311.387-.358.88-.536 1.48-.536.587 0 1.066.178 1.44.536.386.344.58.781.58 1.31 0 .517-.194.954-.58 1.312-.374.344-.853.516-1.44.516Zm1.7 1.152v11.083h-3.42V16.074h3.42ZM99.19 17.643a3.7 3.7 0 0 1 1.379-1.251c.587-.318 1.273-.477 2.059-.477.92 0 1.753.232 2.499.695.747.464 1.334 1.126 1.76 1.986.439.861.66 1.86.66 3 0 1.138-.221 2.145-.66 3.018-.426.861-1.013 1.53-1.76 2.007a4.64 4.64 0 0 1-2.499.695c-.773 0-1.459-.16-2.059-.477-.587-.318-1.047-.728-1.38-1.231v6.832h-3.418V16.074h3.418v1.569Zm4.878 3.953c0-.848-.24-1.51-.72-1.987-.467-.49-1.046-.735-1.739-.735-.68 0-1.26.245-1.74.735-.466.49-.699 1.159-.699 2.006 0 .848.233 1.517.7 2.007.479.49 1.059.734 1.739.734.68 0 1.26-.245 1.739-.735.48-.503.72-1.178.72-2.025ZM113.279 27.316c-.974 0-1.84-.166-2.6-.497-.759-.33-1.359-.781-1.799-1.35a3.628 3.628 0 0 1-.74-1.947h3.379c.04.384.22.695.54.934.32.238.713.357 1.18.357.426 0 .752-.08.979-.238.24-.172.36-.39.36-.656 0-.317-.167-.55-.5-.695-.333-.159-.873-.33-1.62-.516a16.642 16.642 0 0 1-1.999-.576 3.599 3.599 0 0 1-1.379-.973c-.387-.45-.579-1.053-.579-1.808 0-.635.173-1.211.519-1.728.36-.53.88-.947 1.559-1.251.693-.305 1.513-.457 2.459-.457 1.399 0 2.499.344 3.299 1.033.813.689 1.28 1.602 1.4 2.74h-3.159a1.337 1.337 0 0 0-.52-.913c-.28-.225-.653-.337-1.119-.337-.4 0-.707.079-.92.238a.704.704 0 0 0-.32.616c0 .317.167.556.5.715.347.159.879.317 1.599.476.826.212 1.499.424 2.019.636.52.198.973.53 1.359.993.4.45.607 1.06.621 1.827 0 .65-.187 1.232-.561 1.748-.359.503-.885.9-1.579 1.192-.679.291-1.472.437-2.378.437ZM130.304 16.074v11.083h-3.419v-1.51c-.346.49-.82.887-1.419 1.192a4.344 4.344 0 0 1-1.96.437c-.853 0-1.606-.185-2.258-.556-.654-.384-1.16-.934-1.52-1.649-.36-.715-.54-1.556-.54-2.522v-6.475h3.399v6.018c0 .742.193 1.318.579 1.728.387.41.907.616 1.56.616.666 0 1.193-.206 1.579-.616.387-.41.58-.986.58-1.728v-6.018h3.419ZM146.394 15.955c1.386 0 2.485.417 3.299 1.251.826.834 1.239 1.993 1.239 3.476v6.475h-3.398v-6.018c0-.715-.194-1.265-.58-1.649-.374-.397-.893-.596-1.56-.596-.666 0-1.193.199-1.579.596-.373.384-.56.934-.56 1.649v6.018h-3.399v-6.018c0-.715-.193-1.265-.579-1.649-.374-.397-.894-.596-1.56-.596s-1.193.199-1.579.596c-.374.384-.559.934-.559 1.649v6.018h-3.419V16.074h3.419v1.39a3.561 3.561 0 0 1 1.359-1.092c.559-.278 1.193-.417 1.898-.417.841 0 1.587.178 2.24.536a3.85 3.85 0 0 1 1.56 1.53 4.48 4.48 0 0 1 1.579-1.49 4.288 4.288 0 0 1 2.179-.576Z"/></g><defs><linearGradient id="b" x1="32.667" x2="3.096" y1="13.73" y2="13.73" gradientUnits="userSpaceOnUse"><stop stop-color="#64C2DB"/><stop offset=".51" stop-color="#7476ED"/><stop offset="1" stop-color="#E56F8C"/></linearGradient><clipPath id="a"><path fill="#fff" d="M.864 0h150.068v40H.864z"/></clipPath></defs></svg>