<svg xmlns="http://www.w3.org/2000/svg" width="151" height="40" fill="none"><g clip-path="url(#a)"><path fill="#2F234F" d="M43.836 27.859h10.74v-3.214h-6.923V12.539h-3.817v15.32ZM60.94 25.716c-1.532 0-2.33-1.328-2.33-3.321s.798-3.343 2.33-3.343c1.53 0 2.35 1.35 2.35 3.343 0 1.993-.82 3.321-2.35 3.321Zm.021 2.485c3.559 0 5.888-2.506 5.888-5.806 0-3.3-2.33-5.807-5.888-5.807-3.537 0-5.91 2.507-5.91 5.807 0 3.3 2.373 5.806 5.91 5.806ZM73.008 31.651c1.64 0 3.084-.364 4.055-1.221.884-.793 1.466-1.993 1.466-3.642v-9.9h-3.364v1.179h-.043c-.647-.921-1.64-1.5-3.106-1.5-2.739 0-4.637 2.271-4.637 5.485 0 3.364 2.308 5.207 4.788 5.207 1.337 0 2.178-.536 2.825-1.264h.087v1.092c0 1.329-.626 2.1-2.114 2.1-1.164 0-1.747-.493-1.94-1.071h-3.408c.345 2.293 2.35 3.535 5.391 3.535Zm-.021-6.985c-1.316 0-2.178-1.071-2.178-2.72 0-1.672.862-2.743 2.178-2.743 1.466 0 2.243 1.242 2.243 2.72 0 1.543-.712 2.743-2.243 2.743ZM85.447 25.716c-1.531 0-2.33-1.328-2.33-3.321s.799-3.343 2.33-3.343c1.531 0 2.35 1.35 2.35 3.343 0 1.993-.819 3.321-2.35 3.321Zm.022 2.485c3.558 0 5.888-2.506 5.888-5.806 0-3.3-2.33-5.807-5.888-5.807-3.537 0-5.91 2.507-5.91 5.807 0 3.3 2.373 5.806 5.91 5.806ZM92.383 27.859h3.515v-10.97h-3.515v10.97Zm0-12.492h3.515V12.54h-3.515v2.828ZM97.423 31.48h3.516v-4.757h.043c.69.922 1.703 1.479 3.127 1.479 2.89 0 4.809-2.272 4.809-5.828 0-3.3-1.79-5.807-4.723-5.807-1.51 0-2.588.664-3.343 1.65h-.064v-1.328h-3.365v14.59Zm5.78-5.978c-1.51 0-2.372-1.221-2.372-3 0-1.778.776-3.128 2.307-3.128 1.51 0 2.222 1.243 2.222 3.128 0 1.864-.82 3-2.157 3ZM114.642 28.202c2.89 0 5.025-1.243 5.025-3.643 0-2.807-2.286-3.3-4.227-3.62-1.402-.258-2.652-.365-2.652-1.137 0-.685.668-1.006 1.531-1.006.97 0 1.639.3 1.768 1.285h3.235c-.172-2.164-1.854-3.514-4.982-3.514-2.609 0-4.766 1.2-4.766 3.514 0 2.571 2.049 3.085 3.968 3.407 1.467.257 2.804.364 2.804 1.35 0 .707-.668 1.092-1.725 1.092-1.165 0-1.898-.535-2.028-1.628h-3.321c.108 2.421 2.135 3.9 5.37 3.9ZM124.442 28.18c1.531 0 2.502-.6 3.3-1.671h.064v1.35h3.365v-10.97h-3.516v6.128c0 1.306-.733 2.206-1.941 2.206-1.121 0-1.66-.664-1.66-1.864v-6.47h-3.494v7.199c0 2.442 1.337 4.092 3.882 4.092ZM132.7 27.859h3.515v-6.15c0-1.307.647-2.228 1.747-2.228 1.057 0 1.553.686 1.553 1.864v6.514h3.515v-6.15c0-1.307.626-2.228 1.747-2.228 1.057 0 1.553.686 1.553 1.864v6.514h3.515v-7.135c0-2.464-1.25-4.157-3.752-4.157-1.424 0-2.61.6-3.472 1.928h-.044c-.56-1.178-1.66-1.928-3.105-1.928-1.596 0-2.653.75-3.343 1.886h-.065v-1.564H132.7v10.97Z"/><path fill="#7F57F1" fill-rule="evenodd" d="M7.913 5.627a18.033 18.033 0 0 0-3.458 3.138c4.124-.38 9.364.24 15.447 3.262 6.495 3.227 11.726 3.336 15.366 2.638a17.69 17.69 0 0 0-1.238-2.856c-4.168.437-9.51-.141-15.736-3.234-3.953-1.964-7.438-2.773-10.381-2.948Zm23.682 2.74A17.979 17.979 0 0 0 18.2 2.415c-1.563 0-3.08.198-4.525.571 1.958.53 4.038 1.307 6.228 2.395 4.558 2.264 8.493 2.993 11.693 2.986Zm4.452 9.786c-4.398.863-10.471.685-17.753-2.932-6.807-3.381-12.225-3.339-15.88-2.532-.188.042-.373.085-.552.13a17.647 17.647 0 0 0-1.135 3.25c.293-.077.596-.151.908-.22 4.433-.979 10.697-.936 18.267 2.824 6.807 3.382 12.225 3.34 15.88 2.532.125-.027.248-.056.37-.085a17.999 17.999 0 0 0-.105-2.967Zm-.482 6.735c-4.355.756-10.251.466-17.27-3.02-6.808-3.382-12.226-3.34-15.88-2.533a18 18 0 0 0-2.185.627c-.002.103-.003.205-.003.308 0 9.861 8.047 17.856 17.972 17.856 8.319 0 15.317-5.615 17.366-13.238Z" clip-rule="evenodd"/></g><defs><clipPath id="a"><path fill="#fff" d="M.136 0h150.068v40H.136z"/></clipPath></defs></svg>