<svg xmlns="http://www.w3.org/2000/svg" width="151" height="40" fill="none"><path fill="#E9327C" d="m23.758 29.463-19.51-13.37c-1.976-1.354-1.304-4.175 1.161-4.839l20.734-5.59a2.954 2.954 0 0 1 2.663.341 2.904 2.904 0 0 1 1.27 2.35l-1.23 18.96c-.145 2.25-3.111 3.503-5.088 2.148Z"/><path fill="#1DACE3" d="M17.57 32.764 6.077 10.434a3.097 3.097 0 0 1 .25-3.242c.339-.465.8-.828 1.332-1.05a3.154 3.154 0 0 1 1.688-.204l21.3 3.266c.49.075.955.265 1.358.554.402.288.73.668.955 1.107a3.097 3.097 0 0 1 0 2.835l-9.813 19.065c-.263.509-.663.936-1.155 1.235a3.15 3.15 0 0 1-4.422-1.236Z"/><path fill="#001A49" d="M30.023 9.108 19.406 7.48 6.368 10.996l5.204 10.114 12.184 8.353c.27.182.565.322.877.414l4.628-8.992.761-11.777ZM83.805 11.718c0-.392.117-.775.337-1.101a2.008 2.008 0 0 1 3.07-.3 1.978 1.978 0 0 1 .432 2.16 1.987 1.987 0 0 1-.735.89 2.005 2.005 0 0 1-1.108.333 2.023 2.023 0 0 1-1.405-.586 1.996 1.996 0 0 1-.59-1.396Zm.333 2.951h3.327v11.014h-3.327V14.669ZM101.83 20.176a5.504 5.504 0 0 1-1.432 4.003 5.565 5.565 0 0 1-3.866 1.813 4.19 4.19 0 0 1-3.304-1.344v5.44h-3.325V14.67h3.325v1.035a4.165 4.165 0 0 1 3.304-1.343 5.596 5.596 0 0 1 3.866 1.813 5.503 5.503 0 0 1 1.432 4.002Zm-3.326 0a2.61 2.61 0 0 0-.476-1.438 2.655 2.655 0 0 0-4.051-.326 2.616 2.616 0 0 0-.543 2.849c.202.475.54.88.973 1.166.432.285.94.437 1.46.437a2.545 2.545 0 0 0 1.925-.756 2.513 2.513 0 0 0 .712-1.932ZM112.094 22.377c0 2.533-2.217 3.613-4.611 3.613a4.881 4.881 0 0 1-2.789-.584 4.84 4.84 0 0 1-1.978-2.038l2.882-1.63c.117.398.368.744.711.98.343.236.758.348 1.174.317.798 0 1.196-.243 1.196-.683 0-1.212-5.454-.573-5.454-4.384 0-2.4 2.039-3.612 4.35-3.612a4.874 4.874 0 0 1 2.485.592 4.834 4.834 0 0 1 1.838 1.764l-2.838 1.52a1.602 1.602 0 0 0-.595-.708 1.618 1.618 0 0 0-.89-.264c-.576 0-.931.216-.931.617-.003 1.264 5.45.427 5.45 4.5ZM124.249 14.67v11.013h-3.326v-1.037a3.794 3.794 0 0 1-3.171 1.344c-2.239 0-4.145-1.586-4.145-4.56v-6.76h3.325v6.278a1.817 1.817 0 0 0 1.93 2.004c1.219 0 2.066-.705 2.066-2.27V14.67h3.321ZM143.309 18.92v6.763h-3.325v-6.476c0-1.1-.533-1.806-1.596-1.806-1.11 0-1.729.771-1.729 2.07v6.212h-3.327v-6.476c0-1.1-.532-1.806-1.596-1.806-1.108 0-1.729.771-1.729 2.07v6.212h-3.326V14.669h3.331v1.01a3.402 3.402 0 0 1 2.971-1.322 3.318 3.318 0 0 1 1.645.347c.509.254.943.635 1.26 1.106a3.647 3.647 0 0 1 1.419-1.138 3.674 3.674 0 0 1 1.796-.315c2.545.005 4.206 1.81 4.206 4.563ZM146.127 14.601a2.46 2.46 0 0 0 2.469-2.452 2.46 2.46 0 0 0-2.469-2.453 2.46 2.46 0 0 0-2.468 2.453 2.46 2.46 0 0 0 2.468 2.452ZM38.402 9.604h3.327v16.079h-3.327V9.603Zm5.21 10.572a5.807 5.807 0 0 1 .98-3.246 5.864 5.864 0 0 1 2.632-2.157 5.908 5.908 0 0 1 3.395-.34 5.883 5.883 0 0 1 3.011 1.593 5.821 5.821 0 0 1 1.612 2.987 5.798 5.798 0 0 1-.33 3.373 5.842 5.842 0 0 1-2.163 2.621 5.9 5.9 0 0 1-3.265.985 5.845 5.845 0 0 1-4.164-1.684 5.74 5.74 0 0 1-1.708-4.132Zm8.426 0a2.521 2.521 0 0 0-.462-1.389 2.547 2.547 0 0 0-1.157-.904 2.566 2.566 0 0 0-2.756.59 2.528 2.528 0 0 0-.524 2.753c.195.46.521.851.94 1.127.417.275.907.422 1.409.422a2.5 2.5 0 0 0 1.85-.743 2.47 2.47 0 0 0 .704-1.856h-.004Zm16.582-5.51V25.13c0 3.7-2.904 5.263-5.852 5.263a5.7 5.7 0 0 1-3.004-.6 5.654 5.654 0 0 1-2.25-2.065l2.836-1.63c.23.46.594.838 1.046 1.087a2.55 2.55 0 0 0 1.483.3 2.224 2.224 0 0 0 1.82-.581 2.194 2.194 0 0 0 .68-1.774v-1.014c-.389.473-.885.85-1.447 1.098a3.962 3.962 0 0 1-1.79.334 5.651 5.651 0 0 1-3.87-1.7 5.578 5.578 0 0 1-1.589-3.895c0-1.454.57-2.852 1.59-3.896a5.65 5.65 0 0 1 3.87-1.699 3.96 3.96 0 0 1 3.237 1.432v-1.124h3.24Zm-3.236 5.287a2.655 2.655 0 0 0-.398-1.512 2.68 2.68 0 0 0-1.182-1.03 2.702 2.702 0 0 0-2.963.507 2.664 2.664 0 0 0-.633 2.92c.2.494.544.918.988 1.216a2.7 2.7 0 0 0 1.503.458 2.527 2.527 0 0 0 1.913-.687 2.494 2.494 0 0 0 .772-1.87v-.002Zm5.12.216a5.806 5.806 0 0 1 .98-3.247 5.863 5.863 0 0 1 2.632-2.157 5.908 5.908 0 0 1 3.394-.339 5.885 5.885 0 0 1 3.012 1.592 5.8 5.8 0 0 1 1.281 6.36A5.842 5.842 0 0 1 79.64 25a5.9 5.9 0 0 1-3.264.984 5.846 5.846 0 0 1-4.161-1.681 5.767 5.767 0 0 1-1.711-4.127v-.007Zm8.425 0a2.526 2.526 0 0 0-.46-1.39 2.567 2.567 0 0 0-3.916-.314 2.529 2.529 0 0 0-.525 2.753c.195.46.522.852.94 1.127.419.276.91.423 1.411.423a2.502 2.502 0 0 0 1.845-.743 2.467 2.467 0 0 0 .705-1.849v-.007Z"/></svg>