<svg xmlns="http://www.w3.org/2000/svg" width="151" height="40" fill="none"><g clip-path="url(#a)"><path fill="#7476ED" d="M23.548 26.364h7.632L12.275 7.273H4.643l18.905 19.09Z"/><path fill="#E56F8C" d="M15.624 7.273 34.84 25.454V7.273h-5.2v5.74l-6.067-5.74h-7.95Z"/><path fill="#64C2DB" d="M.983 8.182v18.182h4.94v-5.726l5.762 5.726h7.599L.983 8.182Z"/><path fill="#3A3B7B" d="M46.64 23.629h4.67v2.735h-8.235V11.818h3.566v11.81ZM57.218 26.364c-1.122 0-2.134-.24-3.036-.721a5.353 5.353 0 0 1-2.113-2.059c-.505-.892-.758-1.935-.758-3.13 0-1.18.26-2.216.78-3.108.519-.906 1.23-1.6 2.132-2.08.903-.48 1.914-.72 3.035-.72 1.122 0 2.133.24 3.036.72a5.279 5.279 0 0 1 2.133 2.08c.52.892.78 1.928.78 3.108 0 1.181-.267 2.224-.8 3.13a5.283 5.283 0 0 1-2.154 2.059c-.903.48-1.914.72-3.035.72Zm0-3.048c.67 0 1.237-.247 1.702-.74.478-.495.718-1.202.718-2.122 0-.92-.233-1.626-.698-2.12a2.185 2.185 0 0 0-1.681-.741c-.684 0-1.252.247-1.703.74-.451.481-.677 1.188-.677 2.122 0 .92.22 1.626.657 2.12a2.185 2.185 0 0 0 1.682.741Z"/><path fill="#3A3B7B" d="M68.175 14.546c.794 0 1.487.164 2.08.492.606.329 1.07.76 1.393 1.294V14.71h3.454v11.44c0 1.054-.209 2.006-.626 2.854a4.65 4.65 0 0 1-1.878 2.054c-.835.507-1.879.76-3.13.76-1.67 0-3.023-.404-4.06-1.212-1.037-.794-1.63-1.875-1.778-3.245h3.414c.107.438.363.78.767 1.027.404.26.902.39 1.495.39.713 0 1.279-.212 1.696-.636.431-.411.646-1.075.646-1.992v-1.623a3.943 3.943 0 0 1-1.393 1.315c-.593.328-1.286.492-2.08.492-.93 0-1.77-.24-2.525-.718-.754-.493-1.353-1.185-1.797-2.075-.431-.903-.647-1.944-.647-3.122 0-1.177.216-2.21.647-3.1.444-.89 1.043-1.575 1.797-2.055a4.609 4.609 0 0 1 2.525-.718Zm3.473 5.894c0-.876-.242-1.568-.727-2.074a2.28 2.28 0 0 0-1.737-.76c-.686 0-1.272.253-1.757.76-.47.492-.707 1.177-.707 2.053 0 .877.236 1.575.707 2.095.485.507 1.07.76 1.757.76a2.28 2.28 0 0 0 1.737-.76c.485-.506.727-1.198.727-2.074ZM82.385 26.364c-1.035 0-1.97-.24-2.802-.721-.82-.48-1.47-1.167-1.95-2.059-.467-.892-.7-1.935-.7-3.13 0-1.18.239-2.216.718-3.108.48-.906 1.136-1.6 1.97-2.08.833-.48 1.767-.72 2.801-.72 1.035 0 1.97.24 2.802.72.833.48 1.49 1.174 1.97 2.08.479.892.719 1.928.719 3.108 0 1.181-.246 2.224-.739 3.13a5.073 5.073 0 0 1-1.988 2.059c-.833.48-1.767.72-2.802.72Zm0-3.048c.618 0 1.142-.247 1.57-.74.443-.495.663-1.202.663-2.122 0-.92-.214-1.626-.643-2.12-.417-.494-.934-.741-1.553-.741-.63 0-1.154.247-1.571.74-.416.481-.625 1.188-.625 2.122 0 .92.202 1.626.606 2.12.417.494.934.741 1.553.741ZM91.127 13.78c-.676 0-1.232-.178-1.668-.532-.42-.367-.631-.817-.631-1.348 0-.545.21-.994.63-1.348.437-.368.993-.552 1.669-.552.66 0 1.202.184 1.622.552.436.354.654.803.654 1.348 0 .531-.218.98-.654 1.348-.42.354-.961.531-1.622.531Zm1.915 1.184v11.4h-3.854v-11.4h3.854ZM98.42 16.352c.312-.54.74-.976 1.287-1.308.547-.332 1.187-.498 1.921-.498.857 0 1.634.242 2.33.726.696.485 1.243 1.177 1.64 2.076.411.9.616 1.945.616 3.135 0 1.19-.205 2.242-.616 3.155-.397.9-.944 1.6-1.64 2.097a3.986 3.986 0 0 1-2.33.727c-.721 0-1.362-.166-1.92-.498a3.693 3.693 0 0 1-1.287-1.287v7.141h-3.188V14.712h3.188v1.64Zm4.55 4.131c0-.886-.224-1.578-.671-2.076-.435-.512-.976-.768-1.622-.768-.634 0-1.175.256-1.622.768-.435.512-.652 1.211-.652 2.097 0 .886.217 1.584.652 2.097.447.512.988.768 1.622.768.634 0 1.174-.256 1.622-.768.447-.526.671-1.232.671-2.118ZM112.484 26.364c-1.014 0-1.917-.172-2.708-.515-.793-.343-1.418-.81-1.876-1.4a3.728 3.728 0 0 1-.771-2.018h3.522c.041.398.229.72.563.968.332.247.743.37 1.229.37.445 0 .784-.082 1.021-.247.25-.178.375-.405.375-.68 0-.328-.174-.569-.521-.72-.348-.165-.91-.343-1.688-.535a17.276 17.276 0 0 1-2.084-.597 3.74 3.74 0 0 1-1.438-1.009c-.402-.467-.604-1.091-.604-1.874 0-.659.18-1.255.541-1.79.375-.55.918-.982 1.626-1.298.723-.316 1.577-.473 2.563-.473 1.459 0 2.606.356 3.439 1.07.848.714 1.334 1.661 1.459 2.841h-3.293a1.388 1.388 0 0 0-.542-.947c-.292-.233-.681-.35-1.167-.35-.416 0-.736.083-.959.247a.727.727 0 0 0-.332.639c0 .329.173.576.52.74.361.166.917.33 1.668.495.861.22 1.563.44 2.104.659.542.206 1.015.549 1.417 1.03.417.466.632 1.097.646 1.893a3 3 0 0 1-.584 1.812c-.375.522-.923.934-1.645 1.236-.709.302-1.536.453-2.481.453ZM129.09 15.454v10.794h-3.377v-1.47c-.343.477-.81.864-1.402 1.16a4.346 4.346 0 0 1-1.936.426c-.842 0-1.587-.18-2.232-.542a3.806 3.806 0 0 1-1.5-1.605c-.356-.697-.534-1.515-.534-2.457v-6.306h3.358v5.861c0 .722.191 1.283.572 1.683.382.4.895.6 1.541.6.658 0 1.178-.2 1.56-.6.382-.4.573-.96.573-1.683v-5.86h3.377ZM145.49 15.454c1.419 0 2.545.407 3.377 1.22.846.811 1.269 1.94 1.269 3.384v6.306h-3.48v-5.861c0-.697-.197-1.232-.593-1.605-.382-.387-.914-.58-1.596-.58s-1.221.193-1.617.58c-.381.373-.572.909-.572 1.605v5.86h-3.48v-5.86c0-.697-.197-1.232-.593-1.605-.382-.387-.914-.58-1.596-.58-.683 0-1.221.193-1.617.58-.381.373-.573.909-.573 1.605v5.86h-3.499V15.572h3.499v1.353a3.621 3.621 0 0 1 1.392-1.063c.573-.271 1.221-.407 1.943-.407.86 0 1.624.175 2.293.523a3.847 3.847 0 0 1 1.596 1.49c.396-.594.935-1.078 1.617-1.451a4.564 4.564 0 0 1 2.23-.561Z"/></g><defs><clipPath id="a"><path fill="#fff" d="M.068 0h150.068v40H.068z"/></clipPath></defs></svg>