<svg xmlns="http://www.w3.org/2000/svg" width="49" height="52" fill="none"><g filter="url(#a)"><path fill="#4299E1" d="M34.5 18v-4c0-5.6-4.4-10-10-10s-10 4.4-10 10v4c-3.4 0-6 2.6-6 6v14c0 3.4 2.6 6 6 6h20c3.4 0 6-2.6 6-6V24c0-3.4-2.6-6-6-6Zm-16-4c0-3.4 2.6-6 6-6s6 2.6 6 6v4h-12v-4Zm8 20c0 1.2-.8 2-2 2s-2-.8-2-2v-6c0-1.2.8-2 2-2s2 .8 2 2v6Z"/></g><defs><filter id="a" width="56" height="56" x="-3.5" y="0" color-interpolation-filters="sRGB" filterUnits="userSpaceOnUse"><feFlood flood-opacity="0" result="BackgroundImageFix"/><feColorMatrix in="SourceAlpha" result="hardAlpha" values="0 0 0 0 0 0 0 0 0 0 0 0 0 0 0 0 0 0 127 0"/><feOffset dy="4"/><feGaussianBlur stdDeviation="2"/><feComposite in2="hardAlpha" operator="out"/><feColorMatrix values="0 0 0 0 0 0 0 0 0 0 0 0 0 0 0 0 0 0 0.25 0"/><feBlend in2="BackgroundImageFix" result="effect1_dropShadow_1_150693"/><feBlend in="SourceGraphic" in2="effect1_dropShadow_1_150693" result="shape"/></filter></defs></svg>